<?xml version="1.0" encoding="UTF-8"?>
<!--Generator: Apple Native CoreSVG 175-->
<!DOCTYPE svg
PUBLIC "-//W3C//DTD SVG 1.1//EN"
       "http://www.w3.org/Graphics/SVG/1.1/DTD/svg11.dtd">
<svg version="1.1" xmlns="http://www.w3.org/2000/svg" xmlns:xlink="http://www.w3.org/1999/xlink" width="3300" height="2200">
 <!--glyph: "", point size: 100.0, font version: "17.3d3e1", template writer version: "65.1"-->
 <style>.hierarchical-0:secondary {fill:#4D4D4D}
.hierarchical-1:primary {fill:#212121}

.SFSymbolsPreview212121 {fill:#212121;opacity:1.0}
.SFSymbolsPreview4D4D4D {fill:#4D4D4D;opacity:1.0}
</style>
 <g id="Notes">
  <rect height="2200" id="artboard" style="fill:white;opacity:1" width="3300" x="0" y="0"/>
  <line style="fill:none;stroke:black;opacity:1;stroke-width:0.5;" x1="263" x2="3036" y1="292" y2="292"/>
  <text style="stroke:none;fill:black;font-family:sans-serif;font-size:13;font-weight:bold;" transform="matrix(1 0 0 1 263 322)">Weight/Scale Variations</text>
  <text style="stroke:none;fill:black;font-family:sans-serif;font-size:13;text-anchor:middle;" transform="matrix(1 0 0 1 559.711 322)">Ultralight</text>
  <text style="stroke:none;fill:black;font-family:sans-serif;font-size:13;text-anchor:middle;" transform="matrix(1 0 0 1 856.422 322)">Thin</text>
  <text style="stroke:none;fill:black;font-family:sans-serif;font-size:13;text-anchor:middle;" transform="matrix(1 0 0 1 1153.13 322)">Light</text>
  <text style="stroke:none;fill:black;font-family:sans-serif;font-size:13;text-anchor:middle;" transform="matrix(1 0 0 1 1449.84 322)">Regular</text>
  <text style="stroke:none;fill:black;font-family:sans-serif;font-size:13;text-anchor:middle;" transform="matrix(1 0 0 1 1746.56 322)">Medium</text>
  <text style="stroke:none;fill:black;font-family:sans-serif;font-size:13;text-anchor:middle;" transform="matrix(1 0 0 1 2043.27 322)">Semibold</text>
  <text style="stroke:none;fill:black;font-family:sans-serif;font-size:13;text-anchor:middle;" transform="matrix(1 0 0 1 2339.98 322)">Bold</text>
  <text style="stroke:none;fill:black;font-family:sans-serif;font-size:13;text-anchor:middle;" transform="matrix(1 0 0 1 2636.69 322)">Heavy</text>
  <text style="stroke:none;fill:black;font-family:sans-serif;font-size:13;text-anchor:middle;" transform="matrix(1 0 0 1 2933.4 322)">Black</text>
  <line style="fill:none;stroke:black;opacity:1;stroke-width:0.5;" x1="263" x2="3036" y1="1903" y2="1903"/>
  <g transform="matrix(1 0 0 1 263 1933)">
   <path d="M9.24805 0.830078Q10.8691 0.830078 12.2949 0.214844Q13.7207-0.400391 14.8096-1.49414Q15.8984-2.58789 16.5186-4.01367Q17.1387-5.43945 17.1387-7.05078Q17.1387-8.66211 16.5186-10.0879Q15.8984-11.5137 14.8047-12.6074Q13.7109-13.7012 12.2852-14.3164Q10.8594-14.9316 9.23828-14.9316Q7.62695-14.9316 6.20117-14.3164Q4.77539-13.7012 3.69141-12.6074Q2.60742-11.5137 1.9873-10.0879Q1.36719-8.66211 1.36719-7.05078Q1.36719-5.43945 1.9873-4.01367Q2.60742-2.58789 3.69629-1.49414Q4.78516-0.400391 6.21094 0.214844Q7.63672 0.830078 9.24805 0.830078ZM9.24805-0.654297Q7.91992-0.654297 6.7627-1.14746Q5.60547-1.64062 4.73145-2.51953Q3.85742-3.39844 3.36426-4.56055Q2.87109-5.72266 2.87109-7.05078Q2.87109-8.37891 3.35938-9.54102Q3.84766-10.7031 4.72168-11.582Q5.5957-12.4609 6.75293-12.9541Q7.91016-13.4473 9.23828-13.4473Q10.5762-13.4473 11.7334-12.9541Q12.8906-12.4609 13.7695-11.582Q14.6484-10.7031 15.1465-9.54102Q15.6445-8.37891 15.6445-7.05078Q15.6445-5.72266 15.1514-4.56055Q14.6582-3.39844 13.7842-2.51953Q12.9102-1.64062 11.748-1.14746Q10.5859-0.654297 9.24805-0.654297ZM5.6543-7.05078Q5.6543-6.72852 5.85938-6.52832Q6.06445-6.32812 6.40625-6.32812L8.51562-6.32812L8.51562-4.20898Q8.51562-3.88672 8.71094-3.67676Q8.90625-3.4668 9.23828-3.4668Q9.56055-3.4668 9.77051-3.67676Q9.98047-3.88672 9.98047-4.20898L9.98047-6.32812L12.0898-6.32812Q12.4219-6.32812 12.627-6.52832Q12.832-6.72852 12.832-7.05078Q12.832-7.38281 12.627-7.58789Q12.4219-7.79297 12.0898-7.79297L9.98047-7.79297L9.98047-9.90234Q9.98047-10.2344 9.77051-10.4443Q9.56055-10.6543 9.23828-10.6543Q8.90625-10.6543 8.71094-10.4443Q8.51562-10.2344 8.51562-9.90234L8.51562-7.79297L6.40625-7.79297Q6.06445-7.79297 5.85938-7.58789Q5.6543-7.38281 5.6543-7.05078Z"/>
  </g>
  <g transform="matrix(1 0 0 1 281.867 1933)">
   <path d="M11.709 2.91016Q13.75 2.91016 15.5518 2.12891Q17.3535 1.34766 18.7305-0.0292969Q20.1074-1.40625 20.8887-3.20801Q21.6699-5.00977 21.6699-7.05078Q21.6699-9.0918 20.8887-10.8936Q20.1074-12.6953 18.7305-14.0723Q17.3535-15.4492 15.5469-16.2305Q13.7402-17.0117 11.6992-17.0117Q9.6582-17.0117 7.85645-16.2305Q6.05469-15.4492 4.68262-14.0723Q3.31055-12.6953 2.5293-10.8936Q1.74805-9.0918 1.74805-7.05078Q1.74805-5.00977 2.5293-3.20801Q3.31055-1.40625 4.6875-0.0292969Q6.06445 1.34766 7.86621 2.12891Q9.66797 2.91016 11.709 2.91016ZM11.709 1.25Q9.98047 1.25 8.47656 0.605469Q6.97266-0.0390625 5.83496-1.17676Q4.69727-2.31445 4.05762-3.81836Q3.41797-5.32227 3.41797-7.05078Q3.41797-8.7793 4.05762-10.2832Q4.69727-11.7871 5.83008-12.9297Q6.96289-14.0723 8.4668-14.7119Q9.9707-15.3516 11.6992-15.3516Q13.4277-15.3516 14.9316-14.7119Q16.4355-14.0723 17.5781-12.9297Q18.7207-11.7871 19.3652-10.2832Q20.0098-8.7793 20.0098-7.05078Q20.0098-5.32227 19.3701-3.81836Q18.7305-2.31445 17.5928-1.17676Q16.4551-0.0390625 14.9463 0.605469Q13.4375 1.25 11.709 1.25ZM7.17773-7.05078Q7.17773-6.69922 7.41211-6.47461Q7.64648-6.25 8.01758-6.25L10.8887-6.25L10.8887-3.36914Q10.8887-2.99805 11.1133-2.76855Q11.3379-2.53906 11.6895-2.53906Q12.0605-2.53906 12.29-2.76855Q12.5195-2.99805 12.5195-3.36914L12.5195-6.25L15.4004-6.25Q15.7715-6.25 16.001-6.47461Q16.2305-6.69922 16.2305-7.05078Q16.2305-7.42188 16.001-7.65137Q15.7715-7.88086 15.4004-7.88086L12.5195-7.88086L12.5195-10.752Q12.5195-11.1328 12.29-11.3623Q12.0605-11.5918 11.6895-11.5918Q11.3379-11.5918 11.1133-11.3574Q10.8887-11.123 10.8887-10.752L10.8887-7.88086L8.01758-7.88086Q7.63672-7.88086 7.40723-7.65137Q7.17773-7.42188 7.17773-7.05078Z"/>
  </g>
  <g transform="matrix(1 0 0 1 305.646 1933)">
   <path d="M14.9707 5.66406Q17.0605 5.66406 18.96 5.01465Q20.8594 4.36523 22.4512 3.19336Q24.043 2.02148 25.2197 0.429688Q26.3965-1.16211 27.0459-3.06641Q27.6953-4.9707 27.6953-7.05078Q27.6953-9.14062 27.0459-11.04Q26.3965-12.9395 25.2197-14.5312Q24.043-16.123 22.4512-17.2998Q20.8594-18.4766 18.9551-19.126Q17.0508-19.7754 14.9609-19.7754Q12.8711-19.7754 10.9717-19.126Q9.07227-18.4766 7.48535-17.2998Q5.89844-16.123 4.72168-14.5312Q3.54492-12.9395 2.90039-11.04Q2.25586-9.14062 2.25586-7.05078Q2.25586-4.9707 2.90527-3.06641Q3.55469-1.16211 4.72656 0.429688Q5.89844 2.02148 7.49023 3.19336Q9.08203 4.36523 10.9814 5.01465Q12.8809 5.66406 14.9707 5.66406ZM14.9707 3.84766Q13.1641 3.84766 11.5283 3.2959Q9.89258 2.74414 8.53516 1.74805Q7.17773 0.751953 6.17676-0.610352Q5.17578-1.97266 4.62891-3.6084Q4.08203-5.24414 4.08203-7.05078Q4.08203-8.86719 4.62891-10.5029Q5.17578-12.1387 6.17188-13.501Q7.16797-14.8633 8.52539-15.8594Q9.88281-16.8555 11.5186-17.4023Q13.1543-17.9492 14.9609-17.9492Q16.7773-17.9492 18.4131-17.4023Q20.0488-16.8555 21.4111-15.8594Q22.7734-14.8633 23.7695-13.501Q24.7656-12.1387 25.3174-10.5029Q25.8691-8.86719 25.8691-7.05078Q25.8789-5.24414 25.332-3.6084Q24.7852-1.97266 23.7842-0.610352Q22.7832 0.751953 21.4209 1.74805Q20.0586 2.74414 18.4229 3.2959Q16.7871 3.84766 14.9707 3.84766ZM9.19922-7.05078Q9.19922-6.66992 9.45801-6.4209Q9.7168-6.17188 10.1172-6.17188L14.0625-6.17188L14.0625-2.2168Q14.0625-1.81641 14.3115-1.55762Q14.5605-1.29883 14.9512-1.29883Q15.3516-1.29883 15.6104-1.55273Q15.8691-1.80664 15.8691-2.2168L15.8691-6.17188L19.8242-6.17188Q20.2246-6.17188 20.4785-6.4209Q20.7324-6.66992 20.7324-7.05078Q20.7324-7.46094 20.4785-7.71484Q20.2246-7.96875 19.8242-7.96875L15.8691-7.96875L15.8691-11.9141Q15.8691-12.3242 15.6104-12.583Q15.3516-12.8418 14.9512-12.8418Q14.5605-12.8418 14.3115-12.583Q14.0625-12.3242 14.0625-11.9141L14.0625-7.96875L10.1172-7.96875Q9.70703-7.96875 9.45312-7.71484Q9.19922-7.46094 9.19922-7.05078Z"/>
  </g>
  <text style="stroke:none;fill:black;font-family:sans-serif;font-size:13;font-weight:bold;" transform="matrix(1 0 0 1 263 1953)">Design Variations</text>
  <text style="stroke:none;fill:black;font-family:sans-serif;font-size:13;" transform="matrix(1 0 0 1 263 1971)">Symbols are supported in up to nine weights and three scales.</text>
  <text style="stroke:none;fill:black;font-family:sans-serif;font-size:13;" transform="matrix(1 0 0 1 263 1989)">For optimal layout with text and other symbols, vertically align</text>
  <text style="stroke:none;fill:black;font-family:sans-serif;font-size:13;" transform="matrix(1 0 0 1 263 2007)">symbols with the adjacent text.</text>
  <line style="fill:none;stroke:#00AEEF;stroke-width:0.5;opacity:1.0;" x1="776" x2="776" y1="1919" y2="1933"/>
  <g transform="matrix(1 0 0 1 776 1933)">
   <path d="M3.31055 0.15625Q3.70117 0.15625 3.91602-0.00976562Q4.13086-0.175781 4.26758-0.585938L5.52734-4.0332L11.2891-4.0332L12.5488-0.585938Q12.6855-0.175781 12.9004-0.00976562Q13.1152 0.15625 13.4961 0.15625Q13.8867 0.15625 14.1162-0.0585938Q14.3457-0.273438 14.3457-0.644531Q14.3457-0.869141 14.2383-1.17188L9.6582-13.3691Q9.48242-13.8184 9.17969-14.043Q8.87695-14.2676 8.4082-14.2676Q7.5-14.2676 7.17773-13.3789L2.59766-1.16211Q2.49023-0.859375 2.49023-0.634766Q2.49023-0.263672 2.70996-0.0537109Q2.92969 0.15625 3.31055 0.15625ZM6.00586-5.51758L8.37891-12.0898L8.42773-12.0898L10.8008-5.51758Z"/>
  </g>
  <line style="fill:none;stroke:#00AEEF;stroke-width:0.5;opacity:1.0;" x1="793.197" x2="793.197" y1="1919" y2="1933"/>
  <text style="stroke:none;fill:black;font-family:sans-serif;font-size:13;font-weight:bold;" transform="matrix(1 0 0 1 776 1953)">Margins</text>
  <text style="stroke:none;fill:black;font-family:sans-serif;font-size:13;" transform="matrix(1 0 0 1 776 1971)">Leading and trailing margins on the left and right side of each symbol</text>
  <text style="stroke:none;fill:black;font-family:sans-serif;font-size:13;" transform="matrix(1 0 0 1 776 1989)">can be adjusted by modifying the x-location of the margin guidelines.</text>
  <text style="stroke:none;fill:black;font-family:sans-serif;font-size:13;" transform="matrix(1 0 0 1 776 2007)">Modifications are automatically applied proportionally to all</text>
  <text style="stroke:none;fill:black;font-family:sans-serif;font-size:13;" transform="matrix(1 0 0 1 776 2025)">scales and weights.</text>
  <g transform="matrix(1 0 0 1 1289 1933)">
   <path d="M2.8418 1.86523L4.54102 3.57422Q5.18555 4.22852 5.90332 4.17969Q6.62109 4.13086 7.31445 3.35938L18.0078-8.42773L17.041-9.4043L6.42578 2.27539Q6.16211 2.57812 5.89355 2.61719Q5.625 2.65625 5.27344 2.30469L4.10156 1.14258Q3.75 0.791016 3.79395 0.522461Q3.83789 0.253906 4.14062-0.0195312L15.6152-10.8203L14.6387-11.7871L3.04688-0.898438Q2.30469-0.214844 2.25098 0.498047Q2.19727 1.21094 2.8418 1.86523ZM9.25781-16.3281Q8.94531-16.0254 8.90625-15.6348Q8.86719-15.2441 9.04297-14.9512Q9.21875-14.6777 9.55566-14.541Q9.89258-14.4043 10.3809-14.5215Q11.4746-14.7754 12.5977-14.7314Q13.7207-14.6875 14.7949-13.9844L14.209-12.5293Q13.9551-11.9043 14.0674-11.4404Q14.1797-10.9766 14.5801-10.5664L16.875-8.25195Q17.2363-7.88086 17.5781-7.82227Q17.9199-7.76367 18.3398-7.8418L19.4043-8.03711L20.0684-7.36328L20.0293-6.80664Q20-6.43555 20.1221-6.12305Q20.2441-5.81055 20.6055-5.44922L21.3672-4.70703Q21.7285-4.3457 22.1533-4.33105Q22.5781-4.31641 22.9297-4.66797L25.8398-7.58789Q26.1914-7.93945 26.1816-8.35449Q26.1719-8.76953 25.8105-9.13086L25.0391-9.89258Q24.6875-10.2539 24.3799-10.3857Q24.0723-10.5176 23.7109-10.4883L23.1348-10.4395L22.4902-11.0742L22.7344-12.1973Q22.832-12.6172 22.6953-12.9834Q22.5586-13.3496 22.1191-13.7891L19.9219-15.9766Q18.6719-17.2168 17.2607-17.8369Q15.8496-18.457 14.4189-18.4814Q12.9883-18.5059 11.665-17.959Q10.3418-17.4121 9.25781-16.3281ZM10.752-15.957Q11.6602-16.6211 12.7002-16.9043Q13.7402-17.1875 14.8047-17.085Q15.8691-16.9824 16.8701-16.5137Q17.8711-16.0449 18.7012-15.2051L21.1328-12.793Q21.3086-12.6172 21.3525-12.4512Q21.3965-12.2852 21.3379-12.0312L21.0156-10.5469L22.5195-9.0625L23.5059-9.12109Q23.6914-9.13086 23.7891-9.09668Q23.8867-9.0625 24.0332-8.91602L24.6094-8.33984L22.168-5.89844L21.5918-6.47461Q21.4453-6.62109 21.4062-6.71875Q21.3672-6.81641 21.377-7.01172L21.4453-7.98828L19.9512-9.47266L18.4277-9.21875Q18.1836-9.16992 18.042-9.2041Q17.9004-9.23828 17.7148-9.41406L15.7129-11.416Q15.5176-11.5918 15.4932-11.7529Q15.4688-11.9141 15.5859-12.1875L16.4648-14.2773Q15.293-15.3711 13.8281-15.791Q12.3633-16.2109 10.8398-15.7617Q10.7227-15.7324 10.6885-15.8057Q10.6543-15.8789 10.752-15.957Z"/>
  </g>
  <text style="stroke:none;fill:black;font-family:sans-serif;font-size:13;font-weight:bold;" transform="matrix(1 0 0 1 1289 1953)">Exporting</text>
  <text style="stroke:none;fill:black;font-family:sans-serif;font-size:13;" transform="matrix(1 0 0 1 1289 1971)">Symbols should be outlined when exporting to ensure the</text>
  <text style="stroke:none;fill:black;font-family:sans-serif;font-size:13;" transform="matrix(1 0 0 1 1289 1989)">design is preserved when submitting to Xcode.</text>
  <text id="template-version" style="stroke:none;fill:black;font-family:sans-serif;font-size:13;text-anchor:end;" transform="matrix(1 0 0 1 3036 1933)">Template v.3.0</text>
  <text style="stroke:none;fill:black;font-family:sans-serif;font-size:13;text-anchor:end;" transform="matrix(1 0 0 1 3036 1951)">Requires Xcode 13 or greater</text>
  <text id="descriptive-name" style="stroke:none;fill:black;font-family:sans-serif;font-size:13;text-anchor:end;" transform="matrix(1 0 0 1 3036 1969)">Generated from custom.speaker.wave.3</text>
  <text style="stroke:none;fill:black;font-family:sans-serif;font-size:13;text-anchor:end;" transform="matrix(1 0 0 1 3036 1987)">Typeset at 100 points</text>
  <text style="stroke:none;fill:black;font-family:sans-serif;font-size:13;" transform="matrix(1 0 0 1 263 726)">Small</text>
  <text style="stroke:none;fill:black;font-family:sans-serif;font-size:13;" transform="matrix(1 0 0 1 263 1156)">Medium</text>
  <text style="stroke:none;fill:black;font-family:sans-serif;font-size:13;" transform="matrix(1 0 0 1 263 1586)">Large</text>
 </g>
 <g id="Guides">
  <g id="H-reference" style="fill:#27AAE1;stroke:none;" transform="matrix(1 0 0 1 339 696)">
   <path d="M0.993347 0L3.6377 0L29.3282-67.1326L30.0301-67.1326L30.0301-70.459L28.1227-70.459ZM11.6882-24.4797L46.9818-24.4797L46.2311-26.7288L12.4382-26.7288ZM55.1193 0L57.7637 0L30.6381-70.459L29.4327-70.459L29.4327-67.1326Z"/>
  </g>
  <line id="Baseline-S" style="fill:none;stroke:#27AAE1;opacity:1;stroke-width:0.5;" x1="263" x2="3036" y1="696" y2="696"/>
  <line id="Capline-S" style="fill:none;stroke:#27AAE1;opacity:1;stroke-width:0.5;" x1="263" x2="3036" y1="625.541" y2="625.541"/>
  <g id="H-reference" style="fill:#27AAE1;stroke:none;" transform="matrix(1 0 0 1 339 1126)">
   <path d="M0.993347 0L3.6377 0L29.3282-67.1326L30.0301-67.1326L30.0301-70.459L28.1227-70.459ZM11.6882-24.4797L46.9818-24.4797L46.2311-26.7288L12.4382-26.7288ZM55.1193 0L57.7637 0L30.6381-70.459L29.4327-70.459L29.4327-67.1326Z"/>
  </g>
  <line id="Baseline-M" style="fill:none;stroke:#27AAE1;opacity:1;stroke-width:0.5;" x1="263" x2="3036" y1="1126" y2="1126"/>
  <line id="Capline-M" style="fill:none;stroke:#27AAE1;opacity:1;stroke-width:0.5;" x1="263" x2="3036" y1="1055.54" y2="1055.54"/>
  <g id="H-reference" style="fill:#27AAE1;stroke:none;" transform="matrix(1 0 0 1 339 1556)">
   <path d="M0.993347 0L3.6377 0L29.3282-67.1326L30.0301-67.1326L30.0301-70.459L28.1227-70.459ZM11.6882-24.4797L46.9818-24.4797L46.2311-26.7288L12.4382-26.7288ZM55.1193 0L57.7637 0L30.6381-70.459L29.4327-70.459L29.4327-67.1326Z"/>
  </g>
  <line id="Baseline-L" style="fill:none;stroke:#27AAE1;opacity:1;stroke-width:0.5;" x1="263" x2="3036" y1="1556" y2="1556"/>
  <line id="Capline-L" style="fill:none;stroke:#27AAE1;opacity:1;stroke-width:0.5;" x1="263" x2="3036" y1="1485.54" y2="1485.54"/>
  <line id="left-margin-Ultralight-S" style="fill:none;stroke:#00AEEF;stroke-width:0.5;opacity:1.0;" x1="502.377" x2="502.377" y1="600.784" y2="720.121"/>
  <line id="right-margin-Ultralight-S" style="fill:none;stroke:#00AEEF;stroke-width:0.5;opacity:1.0;" x1="617.046" x2="617.046" y1="600.784" y2="720.121"/>
  <line id="left-margin-Regular-S" style="fill:none;stroke:#00AEEF;stroke-width:0.5;opacity:1.0;" x1="1385.56" x2="1385.56" y1="600.784" y2="720.121"/>
  <line id="right-margin-Regular-S" style="fill:none;stroke:#00AEEF;stroke-width:0.5;opacity:1.0;" x1="1514.13" x2="1514.13" y1="600.784" y2="720.121"/>
  <line id="left-margin-Black-S" style="fill:none;stroke:#00AEEF;stroke-width:0.5;opacity:1.0;" x1="2856.15" x2="2856.15" y1="600.784" y2="720.121"/>
  <line id="right-margin-Black-S" style="fill:none;stroke:#00AEEF;stroke-width:0.5;opacity:1.0;" x1="3010.65" x2="3010.65" y1="600.784" y2="720.121"/>
 </g>
 <g id="Symbols">
  <g id="Black-S" transform="matrix(1 0 0 1 2856.15 696)">
   <path class="hierarchical-0:secondary SFSymbolsPreview4D4D4D" d="M120.85 7.54678Q123.389 8.91397 126.074 8.25479Q128.76 7.59561 130.176 5.1542Q133.691-0.851655 136.182-7.41904Q138.672-13.9864 139.99-21.0665Q141.309-28.1465 141.309-35.5684Q141.309-43.0391 139.99-50.0948Q138.672-57.1505 136.182-63.7178Q133.691-70.2852 130.176-76.2911Q128.76-78.7325 126.074-79.4161Q123.389-80.0997 120.85-78.6837Q118.164-77.17 117.725-74.2891Q117.285-71.4083 118.994-68.4298Q121.729-63.5958 123.682-58.2735Q125.635-52.9512 126.66-47.2628Q127.686-41.5743 127.686-35.5684Q127.686-29.6114 126.66-23.8985Q125.635-18.1856 123.682-12.8633Q121.729-7.54111 118.994-2.70712Q117.285 0.271392 117.725 3.15225Q118.164 6.03311 120.85 7.54678ZM100.293-3.879Q102.686-2.56064 105.298-3.12216Q107.91-3.68369 109.375-6.02744Q113.428-12.4727 115.601-20.0167Q117.773-27.5606 117.773-35.7149Q117.773-43.8692 115.601-51.4131Q113.428-58.9571 109.375-65.4024Q107.91-67.7462 105.298-68.3077Q102.686-68.8692 100.293-67.5508Q97.4609-66.0372 97.0947-63.0342Q96.7285-60.0313 98.5352-57.004Q101.221-52.3653 102.71-46.9454Q104.199-41.5255 104.199-35.7149Q104.199-29.9044 102.71-24.4844Q101.221-19.0645 98.5352-14.4258Q96.7285-11.3985 97.0947-8.42001Q97.4609-5.4415 100.293-3.879ZM79.541-15.3536Q81.9336-13.9376 84.4238-14.4014Q86.9141-14.8653 88.3301-16.8184Q91.1621-20.8223 92.7246-25.6319Q94.2871-30.4415 94.2871-35.7149Q94.2871-40.9883 92.7246-45.8223Q91.1621-50.6563 88.3301-54.6602Q86.9141-56.5645 84.4238-57.0284Q81.9336-57.4922 79.541-56.0762Q77.0508-54.6114 76.5381-51.7794Q76.0254-48.9473 78.1738-45.1876Q79.3945-43.088 80.0293-40.6954Q80.6641-38.3028 80.6641-35.7149Q80.6641-33.1758 80.0293-30.7589Q79.3945-28.3419 78.1738-26.2422Q76.0254-22.5313 76.5381-19.6749Q77.0508-16.8184 79.541-15.3536Z"/>
   <path class="hierarchical-1:primary SFSymbolsPreview212121" d="M25-15.8419L35.3516-15.8419Q35.6445-15.8419 35.8398-15.6465L50.3906-2.6583Q52.4414-0.851655 54.1992 0.0272515Q55.957 0.90616 58.1055 0.90616Q61.4746 0.90616 63.7695-1.38876Q66.0645-3.68369 66.0645-7.05283L66.0645-64.2794Q66.0645-67.6485 63.7695-69.9434Q61.4746-72.2383 58.1055-72.2383Q56.1035-72.2383 54.3213-71.4083Q52.5391-70.5782 50.3906-68.6739L35.8398-55.7344Q35.5469-55.4903 35.3516-55.4903L25-55.4903Q19.2871-55.4903 16.2354-52.2921Q13.1836-49.0938 13.1836-43.1856L13.1836-28.1465Q13.1836-22.2383 16.2354-19.0401Q19.2871-15.8419 25-15.8419ZM27.5391-28.3419Q27.1484-28.3419 26.8799-28.6348Q26.6113-28.9278 26.6113-29.2696L26.6113-42.0626Q26.6113-42.4532 26.8799-42.7217Q27.1484-42.9903 27.5391-42.9903L38.0859-42.9903Q39.0625-42.9903 39.7705-43.2344Q40.4785-43.4786 41.1133-44.1133L51.5137-53.7325Q51.6113-53.8301 51.7578-53.879Q51.9043-53.9278 52.0508-53.9278Q52.6367-53.9278 52.6367-53.293L52.6367-17.9903Q52.6367-17.3067 52.0508-17.3067Q51.7578-17.3067 51.5137-17.5508L41.1133-27.2188Q39.9414-28.3419 38.0859-28.3419Z"/>
  </g>
  <g id="Regular-S" transform="matrix(1 0 0 1 1385.56 696)">
   <path class="hierarchical-0:secondary SFSymbolsPreview4D4D4D" d="M101.025 1.01776Q102.148 1.84784 103.564 1.55487Q104.98 1.2619 105.859-0.0564512Q109.277-4.84161 111.646-10.5545Q114.014-16.2674 115.259-22.5662Q116.504-28.865 116.504-35.4568Q116.504-42.0486 115.234-48.3474Q113.965-54.6463 111.572-60.3347Q109.18-66.0232 105.859-70.8572Q104.98-72.2244 103.564-72.4929Q102.148-72.7615 101.025-71.9314Q99.8047-71.1013 99.6338-69.7097Q99.4629-68.3181 100.391-66.9509Q103.32-62.7029 105.444-57.6248Q107.568-52.5467 108.691-46.9558Q109.814-41.365 109.814-35.4568Q109.814-29.5974 108.691-23.9822Q107.568-18.367 105.444-13.2888Q103.32-8.21075 100.391-3.96271Q99.4629-2.59552 99.6338-1.20392Q99.8047 0.18769 101.025 1.01776ZM86.2305-9.08966Q87.4023-8.25958 88.7695-8.52814Q90.1367-8.79669 91.0156-10.0662Q94.6777-15.1443 96.6797-21.7849Q98.6816-28.4256 98.6816-35.4568Q98.6816-42.4881 96.7041-49.1531Q94.7266-55.8181 91.0156-60.8474Q90.1367-62.117 88.7695-62.3855Q87.4023-62.6541 86.2305-61.824Q85.0098-61.0427 84.8389-59.6511Q84.668-58.2595 85.5957-56.8924Q88.623-52.5955 90.2832-47.0047Q91.9434-41.4138 91.9434-35.4568Q91.9434-29.4998 90.2344-23.9334Q88.5254-18.367 85.5957-14.0213Q84.7168-12.6541 84.8633-11.2625Q85.0098-9.87091 86.2305-9.08966ZM71.582-19.0017Q72.6562-18.2693 74.0234-18.5134Q75.3906-18.7576 76.2695-20.0271Q78.4668-22.9568 79.6875-27.0584Q80.9082-31.1599 80.9082-35.4568Q80.9082-39.7537 79.6875-43.8308Q78.4668-47.908 76.2695-50.8865Q75.3906-52.156 74.0234-52.4002Q72.6562-52.6443 71.582-51.8631Q70.2637-50.9353 70.0684-49.4949Q69.873-48.0545 70.8984-46.6873Q72.4121-44.5877 73.2666-41.5847Q74.1211-38.5818 74.1211-35.4568Q74.1211-32.3318 73.2422-29.3533Q72.3633-26.3748 70.8984-24.2263Q69.873-22.8591 70.0684-21.3943Q70.2637-19.9295 71.582-19.0017Z"/>
   <path class="hierarchical-1:primary SFSymbolsPreview212121" d="M20.5078-19.3924L31.25-19.3924Q31.6895-19.3924 32.0312-19.0994L48.9746-3.86505Q50.5371-2.49786 51.8066-1.8631Q53.0762-1.22833 54.5898-1.22833Q56.5918-1.22833 57.959-2.54669Q59.3262-3.86505 59.3262-5.91583L59.3262-64.656Q59.3262-66.7068 57.959-68.1472Q56.5918-69.5877 54.4922-69.5877Q52.9785-69.5877 51.8311-68.8797Q50.6836-68.1717 48.9746-66.658L32.0312-51.7166Q31.6895-51.4236 31.25-51.4236L20.5078-51.4236Q16.3086-51.4236 14.1846-49.2263Q12.0605-47.0291 12.0605-42.4881L12.0605-28.2791Q12.0605-23.7869 14.1846-21.5896Q16.3086-19.3924 20.5078-19.3924ZM20.8496-25.74Q19.873-25.74 19.3848-26.2283Q18.8965-26.7166 18.8965-27.6931L18.8965-43.1228Q18.8965-44.0994 19.3848-44.5877Q19.873-45.0759 20.8496-45.0759L33.1055-45.0759Q33.8379-45.0759 34.4238-45.2713Q35.0098-45.4666 35.6934-46.0525L51.5137-60.408Q51.6113-60.5056 51.7578-60.5789Q51.9043-60.6521 52.0508-60.6521Q52.5391-60.6521 52.5391-60.1638L52.5391-10.7009Q52.5391-10.1639 52.0996-10.1639Q51.7578-10.1639 51.5137-10.4568L35.6934-24.7634Q34.5703-25.74 33.1055-25.74Z"/>
  </g>
  <g id="Ultralight-S" transform="matrix(1 0 0 1 502.377 696)">
   <path class="hierarchical-0:secondary SFSymbolsPreview4D4D4D" d="M92.1387 0.760356Q92.5781 1.0045 93.0176 0.90684Q93.457 0.809184 93.7012 0.418559Q96.7773-4.56191 99.292-9.95742Q101.807-15.3529 103.271-21.5785Q104.736-27.8041 104.736-35.3236Q104.736-42.8431 103.271-49.0687Q101.807-55.2943 99.292-60.6898Q96.7773-66.0853 93.7012-71.0658Q93.457-71.4564 93.0176-71.5541Q92.5781-71.6517 92.1387-71.4076Q91.748-71.1635 91.6992-70.6752Q91.6504-70.1869 91.9434-69.7474Q94.873-64.9135 97.29-59.7621Q99.707-54.6107 101.147-48.6049Q102.588-42.599 102.588-35.3236Q102.588-28.0482 101.147-22.0424Q99.707-16.0365 97.29-10.8851Q94.873-5.73378 91.9434-0.8998Q91.6504-0.460347 91.6992 0.0279338Q91.748 0.516216 92.1387 0.760356ZM79.7852-9.49355Q80.2246-9.20058 80.6396-9.29824Q81.0547-9.39589 81.3477-9.73769Q85.0098-14.474 87.2559-21.2611Q89.502-28.0482 89.502-35.3236Q89.502-42.599 87.2803-49.3617Q85.0586-56.1244 81.3477-60.9095Q81.0547-61.2513 80.6396-61.349Q80.2246-61.4467 79.7852-61.1537Q79.3945-60.8607 79.3457-60.4213Q79.2969-59.9818 79.6387-59.5424Q83.3496-54.6595 85.3271-48.434Q87.3047-42.2084 87.3047-35.3236Q87.3047-28.4388 85.3271-22.2133Q83.3496-15.9877 79.6387-11.1049Q79.2969-10.6654 79.3457-10.2259Q79.3945-9.78652 79.7852-9.49355ZM67.7246-19.6498Q68.1641-19.3568 68.5791-19.4545Q68.9941-19.5521 69.2871-19.8939Q71.4844-22.7259 72.876-26.6566Q74.2676-30.5873 74.2676-35.3236Q74.2676-40.0599 72.876-43.9906Q71.4844-47.9213 69.2871-50.7533Q68.9941-51.0951 68.5791-51.1927Q68.1641-51.2904 67.7246-50.9974Q67.334-50.7045 67.2852-50.2406Q67.2363-49.7767 67.5781-49.3373Q69.873-46.1635 70.9717-42.8431Q72.0703-39.5228 72.0703-35.3236Q72.0703-31.1244 70.9717-27.8041Q69.873-24.4838 67.5781-21.3099Q67.2363-20.8705 67.2852-20.4066Q67.334-19.9427 67.7246-19.6498Z"/>
   <path class="hierarchical-1:primary SFSymbolsPreview212121" d="M14.7461-21.8959L26.7578-21.8959Q27.6367-21.8959 28.2715-21.3099L46.8262-4.85488Q47.4121-4.26894 48.0957-3.90273Q48.7793-3.53652 49.6094-3.53652Q50.7324-3.53652 51.3428-4.31777Q51.9531-5.09902 51.9531-6.17324L51.9531-64.4252Q51.9531-65.5482 51.3428-66.3539Q50.7324-67.1595 49.6094-67.1595Q48.7793-67.1595 48.1201-66.7445Q47.4609-66.3295 46.8262-65.7924L28.2715-48.849Q27.7344-48.3607 26.7578-48.3607L14.7461-48.3607Q12.2559-48.3607 11.0596-47.1156Q9.86328-45.8705 9.86328-43.3314L9.86328-26.7787Q9.86328-24.2885 11.0596-23.0922Q12.2559-21.8959 14.7461-21.8959ZM14.7461-23.9955Q13.2324-23.9955 12.6709-24.6302Q12.1094-25.265 12.1094-26.7787L12.1094-43.3802Q12.1094-44.9427 12.6709-45.5775Q13.2324-46.2123 14.7461-46.2123L26.8066-46.2123Q27.6855-46.2123 28.3447-46.3832Q29.0039-46.5541 29.6875-47.2377L48.0957-64.0834Q48.3887-64.2787 48.6084-64.474Q48.8281-64.6693 49.1211-64.6693Q49.8047-64.6693 49.8047-63.9369L49.8047-6.808Q49.8047-6.02675 49.1699-6.02675Q48.7793-6.02675 48.1445-6.56386L29.6875-23.0189Q28.5156-23.9955 26.8066-23.9955Z"/>
  </g>
 </g>
</svg>
